<svg width="151" height="32" viewBox="0 0 151 32" fill="none" xmlns="http://www.w3.org/2000/svg">
<g clip-path="url(#clip0_866_1657)">
<path d="M143.993 14.5312H139.151V25.6795H135.861V14.5312H133.55V11.8715H135.861V9.95068C135.861 8.49979 136.333 7.31108 137.278 6.38454C138.223 5.45756 139.434 4.99429 140.912 4.99429C141.305 4.99429 141.655 5.01436 141.96 5.05449C142.233 5.08825 142.503 5.14903 142.765 5.23596V8.04321C142.658 7.98079 142.469 7.90499 142.201 7.81492C141.932 7.72574 141.623 7.68115 141.274 7.68115C140.593 7.68115 140.069 7.89339 139.702 8.31876C139.335 8.74413 139.151 9.37326 139.151 10.2057V11.8715H143.993V8.76865L147.257 7.77479V11.8715H150.548V14.5312H147.257V20.992C147.257 21.8436 147.411 22.4428 147.72 22.792C148.029 23.1411 148.515 23.3159 149.178 23.3159C149.366 23.3159 149.592 23.2713 149.856 23.1821C150.099 23.1025 150.331 22.9941 150.548 22.8593V25.5457C150.342 25.6621 150 25.7695 149.52 25.8681C149.054 25.9652 148.579 26.0146 148.103 26.0157C146.733 26.0157 145.705 25.6514 145.02 24.921C144.335 24.1911 143.993 23.092 143.993 21.6233V14.5312ZM122.409 18.8696C122.409 20.3111 122.736 21.4124 123.39 22.174C124.043 22.9351 124.979 23.3154 126.197 23.3154C127.379 23.3154 128.279 22.9351 128.897 22.174C129.515 21.4124 129.824 20.2843 129.824 18.7889C129.824 17.3023 129.503 16.1809 128.863 15.4238C128.223 14.6672 127.325 14.2891 126.17 14.2891C124.98 14.2891 124.054 14.685 123.397 15.4778C122.738 16.2701 122.409 17.4008 122.409 18.8696ZM119.024 18.9766C119.024 16.6937 119.669 14.8848 120.958 13.5502C122.248 12.2157 124.039 11.5487 126.331 11.5487C128.49 11.5487 130.175 12.1912 131.389 13.4762C132.602 14.7617 133.209 16.4966 133.209 18.6814C133.209 20.9202 132.564 22.7023 131.275 24.0275C129.985 25.3531 128.23 26.0152 126.009 26.0152C123.868 26.0152 122.17 25.3865 120.911 24.1283C119.653 22.8709 119.024 21.1529 119.024 18.9766ZM111.704 15.4978C111.704 15.9638 111.852 16.3285 112.147 16.5929C112.442 16.8569 113.096 17.1904 114.108 17.593C115.407 18.1129 116.318 18.697 116.842 19.3462C117.366 19.9954 117.628 20.7819 117.628 21.7036C117.628 23.002 117.128 24.0453 116.13 24.8336C115.131 25.6215 113.781 26.0152 112.08 26.0152C111.507 26.0152 110.873 25.9461 110.179 25.807C109.485 25.6688 108.896 25.4917 108.413 25.2764V22.0799C109.002 22.4906 109.644 22.8203 110.32 23.0599C111.001 23.302 111.618 23.4229 112.174 23.4229C112.908 23.4229 113.45 23.3203 113.799 23.1139C114.149 22.9088 114.323 22.5632 114.323 22.0799C114.323 21.6318 114.142 21.2537 113.779 20.9447C113.417 20.6357 112.729 20.2794 111.717 19.8768C110.518 19.3752 109.667 18.8112 109.165 18.1843C108.664 17.5574 108.413 16.7606 108.413 15.7935C108.413 14.5486 108.908 13.5257 109.898 12.724C110.886 11.9228 112.17 11.5219 113.746 11.5219C114.229 11.5219 114.771 11.5755 115.371 11.6829C115.971 11.7908 116.472 11.9295 116.875 12.0994V15.1893C116.445 14.9022 115.944 14.6565 115.371 14.45C114.798 14.244 114.229 14.141 113.665 14.141C113.047 14.141 112.566 14.2619 112.221 14.5035C111.876 14.7456 111.704 15.0769 111.704 15.4978ZM96.0689 18.8696C96.0689 20.3111 96.3957 21.4124 97.0498 22.174C97.703 22.9351 98.6389 23.3154 99.8566 23.3154C101.039 23.3154 101.939 22.9351 102.556 22.174C103.174 21.4124 103.484 20.2843 103.484 18.7889C103.484 17.3023 103.163 16.1809 102.523 15.4238C101.883 14.6672 100.985 14.2891 99.8303 14.2891C98.6389 14.2891 97.7146 14.685 97.0561 15.4778C96.3979 16.2701 96.0689 17.4008 96.0689 18.8696ZM92.6838 18.9766C92.6838 16.6937 93.3285 14.8848 94.618 13.5502C95.9079 12.2157 97.699 11.5487 99.9913 11.5487C102.149 11.5487 103.835 12.1912 105.048 13.4762C106.262 14.7617 106.868 16.4966 106.868 18.6814C106.868 20.9202 106.224 22.7023 104.934 24.0275C103.645 25.3531 101.89 26.0152 99.6689 26.0152C97.5287 26.0152 95.8299 25.3865 94.5712 24.1283C93.3129 22.8709 92.6838 21.1529 92.6838 18.9766ZM91.2855 11.6428C91.545 11.6428 91.7782 11.6611 91.9842 11.6967C92.1902 11.7324 92.3645 11.777 92.5081 11.8309V15.1215C92.3378 14.9967 92.0894 14.8781 91.7626 14.7657C91.4358 14.6542 91.0394 14.5981 90.5739 14.5981C89.7766 14.5981 89.1029 14.9338 88.5523 15.6057C88.0016 16.2768 87.7261 17.3112 87.7261 18.7082V25.6795H84.4756V11.8711H87.7261V14.047H87.7796C88.0752 13.2948 88.5228 12.7062 89.123 12.2813C89.7231 11.8559 90.4437 11.6428 91.2855 11.6428ZM78.8205 23.3159C79.3039 23.3159 79.8371 23.2044 80.419 22.9797C80.9944 22.7595 81.5368 22.4613 82.0309 22.0933V25.1154C81.5114 25.411 80.9229 25.6349 80.2643 25.7869C79.6066 25.9394 78.883 26.0152 78.0951 26.0152C76.0623 26.0152 74.4099 25.3731 73.1387 24.0877C71.8671 22.8036 71.2312 21.1618 71.2312 19.1652C71.2312 16.9447 71.8804 15.1153 73.1797 13.6778C74.4772 12.2403 76.3174 11.5219 78.6997 11.5219C79.3088 11.5219 79.9241 11.6004 80.547 11.7569C81.169 11.9139 81.6635 12.0949 82.0309 12.3009V15.4176C81.5292 15.0502 81.0169 14.7657 80.4926 14.5642C79.9809 14.3651 79.4368 14.2626 78.8879 14.2619C77.6073 14.2619 76.5729 14.6783 75.785 15.5112C74.9967 16.3441 74.6025 17.4677 74.6025 18.8829C74.6025 20.2794 74.9815 21.3678 75.7377 22.1468C76.4944 22.9262 77.5221 23.3159 78.8205 23.3159ZM68.9613 25.6795H65.7108V11.8711H68.9613V25.6795ZM65.3746 7.8818C65.3746 7.34452 65.5695 6.89463 65.9592 6.53168C66.3489 6.16918 66.8121 5.98771 67.3494 5.98771C67.9224 5.98771 68.3972 6.17364 68.7731 6.54506C69.1494 6.91692 69.3376 7.36235 69.3376 7.8818C69.3376 8.41017 69.145 8.85381 68.7597 9.21141C68.3745 9.56989 67.9045 9.74869 67.3494 9.74869C66.7939 9.74869 66.3261 9.56766 65.9458 9.20516C65.565 8.84177 65.3751 8.40125 65.3751 7.8818M62.5776 6.41754V25.6795H59.2336V10.582H59.1801L53.2017 25.6795H50.9857L44.8602 10.582H44.8201V25.6795H41.7306V6.41754H46.526L52.0603 20.6963H52.1405L57.9838 6.41754H62.5776Z" fill="#737373"/>
<path d="M15.2553 15.2553H-0.00177002V-0.00177002H15.2553V15.2553Z" fill="#F25022"/>
<path d="M32.1001 15.2553H16.843V-0.00177002H32.1001V15.2553Z" fill="#7FBA00"/>
<path d="M15.2553 32.1001H-0.00177002V16.843H15.2553V32.1001Z" fill="#00A4EF"/>
<path d="M32.1001 32.1001H16.843V16.843H32.1001V32.1001Z" fill="#FFB900"/>
</g>
<defs>
<clipPath id="clip0_866_1657">
<rect width="150.261" height="32" fill="white"/>
</clipPath>
</defs>
</svg>
