<svg width="174" height="32" viewBox="0 0 174 32" fill="none" xmlns="http://www.w3.org/2000/svg">
<path d="M171.326 25.6605V25.1797H171.628C171.789 25.1797 172.02 25.1975 172.02 25.3934C172.02 25.5893 171.895 25.6605 171.699 25.6605H171.326ZM171.326 25.9989H171.539L172.02 26.8358H172.536L172.002 25.9633C172.269 25.9811 172.483 25.7852 172.501 25.5181V25.4469C172.501 24.9839 172.18 24.8414 171.646 24.8414H170.88V26.8358H171.326V25.9989ZM173.569 25.8386C173.569 24.6633 172.661 23.9866 171.646 23.9866C170.631 23.9866 169.723 24.6633 169.723 25.8386C169.723 27.0139 170.631 27.6906 171.646 27.6906C172.661 27.6906 173.569 27.0139 173.569 25.8386ZM172.999 25.8386C173.035 26.5865 172.447 27.2276 171.699 27.2632H171.646C170.863 27.2988 170.204 26.6756 170.168 25.892C170.132 25.1085 170.756 24.4496 171.539 24.414C172.323 24.3784 172.982 25.0017 173.017 25.7852C172.999 25.803 172.999 25.8208 172.999 25.8386Z" fill="black"/>
<path d="M102.963 6.05445V27.0673H108.893V6.05445H102.963ZM56.3072 6.01884V27.0494H62.2905V10.72L66.956 10.7378C68.4875 10.7378 69.5559 11.1118 70.286 11.8953C71.2298 12.8925 71.6038 14.513 71.6038 17.4512V27.0494H77.409V15.439C77.409 7.14071 72.1202 6.01884 66.956 6.01884H56.3072ZM112.525 6.05445V27.0673H122.141C127.27 27.0673 128.944 26.2125 130.742 24.3071C132.024 22.9715 132.844 20.0155 132.844 16.7923C132.844 13.8363 132.149 11.2008 130.92 9.56252C128.748 6.62429 125.578 6.05445 120.841 6.05445H112.525ZM118.402 10.6132H120.948C124.652 10.6132 127.038 12.2693 127.038 16.5787C127.038 20.8881 124.652 22.562 120.948 22.562H118.402V10.6132ZM94.4151 6.05445L89.4646 22.7044L84.7279 6.05445H78.3172L85.084 27.0673H93.6316L100.47 6.05445H94.4151ZM135.622 27.0673H141.551V6.05445H135.622V27.0673ZM152.254 6.05445L143.973 27.0494H149.814L151.132 23.3277H160.926L162.173 27.0316H168.53L160.178 6.05445H152.254ZM156.1 9.88306L159.697 19.7128H152.396L156.1 9.88306Z" fill="black"/>
<path d="M18.039 9.5448V6.65999C18.3239 6.64218 18.6088 6.62437 18.8937 6.62437C26.8002 6.37507 31.9822 13.4268 31.9822 13.4268C31.9822 13.4268 26.3907 21.1909 20.3895 21.1909C19.5882 21.1909 18.8047 21.0662 18.0568 20.8169V12.0556C21.1375 12.4296 21.7607 13.783 23.5949 16.8637L27.7084 13.409C27.7084 13.409 24.6989 9.47357 19.6416 9.47357C19.1074 9.45576 18.5732 9.49137 18.039 9.5448ZM18.039 0V4.30941L18.8937 4.25598C29.8809 3.88203 37.0573 13.2666 37.0573 13.2666C37.0573 13.2666 28.8303 23.2743 20.2649 23.2743C19.517 23.2743 18.7869 23.2031 18.0568 23.0785V25.7496C18.6622 25.8208 19.2855 25.8742 19.8909 25.8742C27.8687 25.8742 33.6383 21.7963 39.2298 16.9883C40.1558 17.7362 43.9488 19.5348 44.7323 20.3183C39.4257 24.7702 27.0495 28.3495 20.0334 28.3495C19.3567 28.3495 18.7156 28.3139 18.0746 28.2426V32H48.3829V0L18.039 0ZM18.039 20.8169V23.0963C10.6667 21.7785 8.61881 14.1035 8.61881 14.1035C8.61881 14.1035 12.1625 10.1859 18.039 9.5448V12.0378H18.0211C14.9405 11.6639 12.5186 14.5487 12.5186 14.5487C12.5186 14.5487 13.8898 19.4101 18.039 20.8169ZM4.95047 13.783C4.95047 13.783 9.3133 7.33667 18.0568 6.65999V4.30941C8.36951 5.09293 0 13.2844 0 13.2844C0 13.2844 4.73678 26.9961 18.039 28.2426V25.7496C8.28047 24.5387 4.95047 13.783 4.95047 13.783Z" fill="#76B900"/>
</svg>
